<?xml version="1.0" standalone="no"?>
<!DOCTYPE svg PUBLIC "-//W3C//DTD SVG 20010904//EN"
 "http://www.w3.org/TR/2001/REC-SVG-20010904/DTD/svg10.dtd">
<svg version="1.0" xmlns="http://www.w3.org/2000/svg"
 width="1172.000000pt" height="1180.000000pt" viewBox="0 0 1172.000000 1180.000000"
 preserveAspectRatio="xMidYMid meet">
<metadata>
Created by potrace 1.16, written by Peter Selinger 2001-2019
</metadata>
<g transform="translate(0.000000,1180.000000) scale(0.100000,-0.100000)"
fill="#000000" stroke="none">
<path d="M5560 11734 c-30 -8 -72 -26 -92 -39 -34 -23 -39 -23 -65 -10 -49 25
-134 38 -214 31 -93 -8 -160 -29 -219 -70 -42 -29 -47 -31 -80 -19 -19 6 -73
12 -120 12 -131 1 -238 -33 -313 -98 -30 -27 -37 -29 -73 -21 -127 30 -314
-23 -404 -114 l-41 -40 -72 2 c-144 6 -320 -71 -378 -164 -20 -33 -22 -34 -88
-34 -109 0 -228 -49 -311 -126 -27 -25 -53 -57 -60 -73 -10 -26 -17 -29 -78
-34 -48 -5 -89 -18 -147 -45 -99 -49 -163 -105 -201 -177 -27 -52 -31 -55 -66
-55 -50 0 -109 -24 -190 -77 -79 -52 -132 -112 -158 -180 -16 -44 -21 -49 -58
-55 -128 -22 -292 -168 -323 -287 -12 -46 -15 -50 -53 -60 -123 -31 -269 -188
-296 -318 -10 -45 -15 -52 -40 -58 -44 -10 -132 -78 -177 -137 -55 -72 -82
-129 -95 -198 -10 -58 -12 -60 -63 -89 -109 -61 -206 -218 -213 -342 -3 -46
-8 -69 -17 -69 -22 0 -108 -84 -147 -145 -51 -78 -82 -180 -76 -249 4 -51 3
-54 -29 -74 -99 -65 -190 -284 -166 -402 8 -43 8 -45 -34 -86 -76 -77 -125
-205 -125 -328 0 -39 5 -83 10 -97 9 -23 7 -30 -19 -55 -87 -83 -135 -304 -93
-427 16 -46 16 -47 -9 -77 -81 -96 -106 -324 -49 -441 18 -37 18 -38 0 -56
-38 -38 -62 -131 -62 -243 -1 -109 11 -162 46 -212 18 -27 18 -28 0 -65 -61
-121 -52 -335 19 -433 l30 -41 -18 -47 c-13 -34 -18 -74 -18 -142 1 -119 29
-217 79 -276 l34 -40 -15 -54 c-32 -121 13 -308 98 -405 31 -35 32 -37 33
-148 1 -89 6 -124 24 -172 27 -73 73 -142 117 -175 31 -24 32 -27 28 -80 -13
-138 85 -342 190 -396 24 -13 27 -20 22 -42 -24 -110 103 -345 217 -403 36
-18 38 -22 38 -67 1 -60 35 -143 93 -224 47 -66 94 -106 159 -133 34 -14 38
-19 38 -53 0 -112 146 -295 270 -339 43 -15 49 -21 55 -52 18 -98 133 -239
237 -291 34 -16 73 -30 88 -30 22 0 27 -6 37 -43 35 -128 226 -287 347 -287
30 0 34 -4 45 -42 9 -30 34 -63 85 -114 86 -86 175 -133 264 -141 52 -5 61 -9
66 -28 9 -35 86 -115 151 -157 73 -48 179 -81 240 -76 32 2 45 -1 45 -10 0
-31 110 -123 197 -165 81 -39 94 -42 174 -43 l86 -1 41 -45 c91 -98 294 -162
410 -129 19 5 33 -2 65 -33 75 -71 213 -119 333 -114 63 2 76 -1 112 -24 89
-60 275 -95 365 -70 30 9 45 7 75 -6 27 -12 73 -17 172 -19 107 -2 147 -7 195
-24 115 -41 298 -33 367 15 18 13 24 13 42 1 36 -24 137 -45 216 -45 92 0 172
20 225 57 l40 28 40 -19 c50 -25 183 -33 267 -16 68 13 127 39 170 75 26 22
30 23 74 9 132 -40 377 20 438 107 11 17 18 18 69 7 118 -25 309 33 393 120
l39 40 100 4 c150 7 271 62 340 155 29 39 31 40 105 45 140 10 290 90 345 186
27 47 33 51 66 52 134 1 340 133 379 242 12 33 17 36 62 41 141 17 312 162
352 299 4 12 15 18 34 18 42 0 139 52 203 109 67 60 113 129 130 194 8 32 17
47 28 47 32 0 117 48 168 94 73 66 130 155 143 224 11 56 13 58 58 77 65 26
171 134 212 215 20 40 34 85 37 119 5 53 7 57 44 74 51 24 112 85 160 159 47
73 69 142 69 215 0 38 4 53 14 53 22 0 101 76 136 131 52 79 80 169 80 252 1
70 2 73 32 92 45 28 111 132 138 214 17 54 21 88 19 153 l-3 83 37 39 c91 93
144 280 113 396 l-15 55 29 30 c86 92 132 320 87 428 -16 37 -16 39 9 76 49
75 67 138 71 256 3 97 1 116 -19 164 l-23 55 28 55 c58 119 62 287 7 397 l-30
61 22 49 c16 35 23 75 26 143 6 132 -18 230 -70 288 -20 21 -20 22 -2 70 13
34 18 74 18 139 -1 119 -31 216 -86 279 -32 37 -37 48 -29 64 18 33 24 126 12
196 -18 102 -48 170 -100 227 -39 44 -46 57 -40 78 33 114 -36 330 -132 413
-46 40 -47 42 -42 86 15 130 -86 340 -189 395 -29 16 -33 22 -30 51 14 119
-110 341 -217 389 -37 17 -39 20 -44 74 -9 88 -73 206 -150 278 -37 36 -80 65
-105 73 -39 13 -42 17 -42 51 0 56 -61 168 -129 239 -56 58 -143 111 -183 111
-13 0 -18 8 -18 26 0 44 -50 133 -111 198 -61 66 -147 119 -210 131 -31 6 -38
12 -48 45 -37 125 -229 280 -347 280 -31 0 -35 4 -55 49 -47 111 -214 229
-337 239 -61 5 -64 6 -82 42 -26 51 -118 132 -190 169 -71 35 -159 55 -207 48
-18 -3 -33 -2 -33 4 0 19 -77 94 -135 131 -83 54 -178 81 -265 76 -65 -3 -69
-2 -84 23 -9 15 -43 45 -76 67 -104 70 -252 106 -339 82 -43 -11 -44 -11 -80
23 -97 93 -308 144 -424 103 -36 -13 -40 -13 -64 10 -34 32 -116 69 -181 83
-85 18 -200 14 -250 -9 l-42 -19 -48 29 c-71 44 -158 63 -272 58 -79 -3 -106
-8 -146 -29 l-49 -25 -32 19 c-80 46 -242 61 -353 31z m284 -48 l40 -17 -75
-75 c-94 -95 -226 -177 -324 -200 -79 -18 -249 -24 -264 -9 -7 7 8 24 45 51
30 23 88 79 127 124 77 89 114 116 186 137 62 17 215 11 265 -11z m489 -13
c26 -12 47 -26 47 -32 0 -23 -152 -135 -249 -184 l-104 -52 -151 0 c-92 0
-158 4 -170 11 -16 10 -12 15 40 43 31 18 99 73 150 122 114 108 144 120 289
116 76 -2 111 -8 148 -24z m-1017 -4 c24 -6 46 -15 49 -18 9 -15 -141 -175
-216 -231 -89 -66 -157 -92 -287 -110 -68 -9 -132 -7 -132 5 0 2 28 30 61 62
34 32 83 90 109 128 59 86 82 108 143 135 86 38 191 49 273 29z m1439 -33 c57
-15 106 -38 123 -58 17 -21 -149 -128 -266 -173 -81 -30 -105 -35 -181 -35
-94 0 -192 15 -229 34 -23 12 -21 14 43 45 37 18 99 60 138 93 101 85 153 108
247 108 41 0 98 -6 125 -14z m-1905 -46 c36 -23 -179 -273 -279 -325 -69 -35
-177 -66 -251 -72 l-75 -6 57 62 c31 33 74 92 94 129 72 130 113 168 221 202
62 20 207 27 233 10z m2414 -60 c54 -21 128 -73 116 -83 -3 -2 -45 -27 -95
-55 -126 -70 -254 -106 -356 -99 -100 8 -213 34 -240 56 -21 17 -21 18 39 39
33 12 103 51 157 87 53 36 111 69 128 75 51 15 185 5 251 -20z m-2917 -48 c22
-7 22 -9 -29 -97 -66 -115 -165 -225 -243 -270 -75 -42 -201 -85 -251 -85
l-38 0 26 28 c41 45 84 113 113 181 33 79 67 131 103 158 92 68 241 107 319
85z m3318 -72 c84 -22 146 -53 184 -94 l24 -25 -59 -27 c-33 -14 -77 -34 -100
-44 -55 -24 -184 -50 -250 -50 -29 0 -87 7 -127 16 -77 17 -182 62 -182 78 0
5 27 16 60 25 33 9 87 32 120 50 177 99 200 104 330 71z m-3791 -89 c4 -5 -13
-51 -37 -103 -45 -97 -141 -227 -199 -271 -51 -39 -201 -108 -249 -114 l-44
-6 17 24 c42 59 78 130 103 204 15 44 36 94 47 112 21 36 75 81 128 108 84 44
219 70 234 46z m4247 -87 c30 -9 71 -25 92 -36 45 -22 117 -85 117 -102 0 -22
-182 -77 -294 -89 -93 -9 -116 -8 -182 7 -84 20 -237 92 -231 109 2 6 33 17
70 24 37 8 102 30 145 49 42 20 88 40 102 44 42 14 123 11 181 -6z m-4711
-114 c0 -5 -16 -53 -36 -106 -51 -135 -130 -254 -208 -311 -91 -68 -236 -134
-236 -108 0 3 13 29 30 58 16 29 41 97 56 152 33 125 51 160 107 212 49 45 86
67 162 94 54 20 125 25 125 9z m2848 -80 c58 -26 94 -60 117 -110 24 -54 16
-66 -47 -73 -43 -4 -55 -2 -63 11 -48 80 -128 109 -211 77 -75 -29 -115 -103
-113 -215 1 -68 16 -111 52 -149 51 -55 147 -66 230 -27 33 16 37 22 37 56 l0
38 -70 7 -70 7 0 48 c0 27 3 51 8 53 8 5 262 -10 267 -15 1 -2 -1 -56 -4 -122
-7 -111 -9 -120 -33 -141 -14 -12 -57 -32 -97 -45 -59 -19 -86 -22 -154 -18
-185 12 -297 131 -297 317 0 208 133 340 328 326 42 -3 94 -14 120 -25z m-642
-285 c84 -165 152 -300 151 -301 -1 -1 -32 -4 -69 -8 l-67 -7 -35 70 -35 69
-63 -5 c-35 -3 -90 -8 -123 -12 l-59 -6 -21 -70 -21 -70 -62 -9 c-35 -5 -64
-7 -67 -5 -3 4 62 234 164 576 l22 72 52 4 c28 2 58 3 66 3 9 -1 77 -123 167
-301z m2966 254 c28 -11 69 -33 93 -49 43 -29 105 -94 105 -109 0 -5 -47 -20
-105 -35 -125 -31 -270 -35 -356 -10 -69 21 -176 75 -219 110 -29 25 -31 29
-14 35 11 4 36 8 58 8 21 1 84 16 140 35 56 19 113 36 126 39 40 8 118 -2 172
-24z m-1921 -10 l55 -11 83 -224 c46 -123 84 -224 86 -224 1 0 19 87 40 193
21 105 41 195 44 199 9 10 111 -13 111 -26 -1 -19 -116 -596 -121 -600 -2 -2
-31 1 -64 8 l-60 12 -75 199 c-41 110 -79 209 -84 220 -6 15 -16 -16 -36 -121
-16 -78 -33 -166 -39 -196 l-12 -55 -57 12 c-31 6 -56 16 -56 21 11 76 119
604 124 604 4 0 31 -5 61 -11z m-1646 -296 c37 -159 70 -295 72 -304 3 -12 -9
-19 -52 -28 -31 -7 -58 -11 -60 -9 -1 1 -28 107 -58 233 l-56 230 0 -247 -1
-247 -37 -10 c-96 -25 -76 -45 -197 188 -61 116 -111 209 -113 207 -2 -1 20
-100 49 -219 28 -119 49 -219 46 -222 -3 -4 -29 -12 -57 -20 -45 -12 -51 -11
-55 3 -14 47 -136 573 -136 585 0 9 30 20 90 34 l90 20 86 -161 c135 -252 120
-252 128 -5 3 117 8 215 11 217 6 6 145 40 166 41 12 1 30 -59 84 -286z
m-2055 180 c0 -5 -11 -50 -25 -102 -21 -85 -62 -178 -117 -268 -38 -63 -234
-202 -285 -203 -7 0 -1 25 18 65 17 38 35 104 44 162 19 120 51 189 113 244
46 40 122 84 172 100 33 10 80 11 80 2z m4536 -84 c115 -39 210 -72 212 -74 7
-7 -23 -87 -35 -92 -6 -3 -78 18 -159 46 -81 29 -150 48 -154 44 -4 -4 -16
-34 -28 -65 l-21 -57 142 -47 c78 -25 145 -50 150 -53 6 -6 -19 -101 -27 -101
-1 0 -68 22 -149 49 -81 27 -148 46 -151 43 -16 -29 -46 -145 -40 -152 5 -4
72 -28 149 -54 77 -25 146 -50 154 -55 12 -8 12 -16 1 -55 -7 -25 -15 -46 -19
-46 -12 0 -436 143 -443 149 -5 4 132 430 187 579 2 6 8 12 14 12 5 0 103 -32
217 -71z m1532 -59 c91 -48 192 -154 169 -176 -3 -3 -49 -12 -104 -21 -78 -13
-120 -14 -205 -6 -99 9 -116 13 -202 56 -52 26 -115 66 -142 90 l-48 44 90 6
c49 3 118 15 154 26 101 32 206 25 288 -19z m-4924 -24 c101 -31 179 -116 217
-235 45 -145 7 -273 -101 -345 -50 -33 -149 -66 -199 -66 -138 0 -258 119
-301 298 -37 157 58 300 230 346 71 19 96 19 154 2z m3961 -147 c115 -55 211
-102 213 -104 7 -6 -30 -95 -39 -95 -5 0 -42 17 -84 37 -47 23 -78 34 -83 28
-5 -6 -55 -107 -111 -225 -56 -118 -106 -219 -110 -223 -5 -5 -32 3 -60 18
-43 21 -51 29 -46 46 4 11 53 117 111 235 l104 215 -85 41 -84 40 22 44 c11
24 26 44 32 44 5 0 105 -45 220 -101z m-5535 19 c-1 -61 -33 -193 -67 -278
-35 -87 -45 -102 -123 -180 -76 -76 -171 -143 -184 -130 -2 3 5 32 16 65 11
33 24 106 29 163 4 57 13 120 20 140 27 82 94 154 202 213 65 36 107 39 107 7z
m6866 -128 c33 -16 79 -46 103 -67 44 -37 101 -116 101 -139 0 -20 -180 -29
-285 -14 -112 15 -164 35 -253 94 -64 42 -142 116 -142 134 0 4 42 6 92 4 51
-2 111 1 133 6 22 6 74 10 116 11 65 1 84 -3 135 -29z m-5907 -44 c42 -22 89
-80 101 -126 14 -52 0 -105 -39 -147 l-29 -32 40 -6 c43 -8 88 -27 207 -88
l74 -39 -65 -39 -66 -39 -125 60 c-71 34 -139 60 -156 60 -36 0 -91 -25 -91
-41 0 -5 27 -56 60 -112 33 -56 59 -105 57 -110 -1 -4 -25 -21 -52 -37 l-50
-29 -159 270 c-87 148 -157 272 -155 274 12 12 281 164 314 178 50 20 98 21
134 3z m4936 -46 l53 -30 -156 -270 c-87 -148 -160 -270 -164 -270 -4 0 -30
14 -57 30 l-50 31 83 142 c45 78 116 199 157 270 40 70 75 127 78 127 2 0 27
-14 56 -30z m-6299 -176 c-8 -125 -48 -263 -98 -338 -57 -88 -195 -212 -214
-194 -3 3 0 26 7 49 7 24 13 105 14 179 1 123 4 140 28 193 32 71 114 154 188
191 84 41 83 42 75 -80z m3924 56 c429 -25 836 -104 1205 -235 1461 -518 2523
-1764 2799 -3285 49 -270 61 -411 61 -760 0 -349 -12 -490 -61 -760 -205
-1128 -844 -2119 -1790 -2772 -1019 -704 -2312 -929 -3522 -613 -525 138
-1041 388 -1479 717 -913 687 -1521 1715 -1672 2833 -180 1328 245 2629 1172
3581 755 776 1752 1231 2833 1293 207 12 252 12 454 1z m3500 -85 c154 0 168
-2 209 -24 85 -45 184 -155 206 -228 6 -23 5 -23 -92 -23 -126 0 -286 37 -357
82 -95 62 -206 169 -206 201 0 5 15 6 38 1 20 -5 111 -8 202 -9z m-775 -19
c67 -31 110 -68 143 -125 22 -38 27 -58 27 -113 0 -37 -4 -71 -10 -77 -6 -6
-29 -1 -65 13 l-55 22 3 45 c7 108 -107 181 -205 130 -50 -25 -94 -76 -133
-155 -34 -67 -37 -103 -14 -152 33 -69 125 -95 192 -54 18 11 37 20 42 20 5 0
25 -21 45 -47 41 -54 40 -57 -43 -95 -117 -53 -265 4 -340 131 -23 40 -27 57
-27 126 0 68 4 89 28 137 38 77 116 161 179 192 70 35 162 36 233 2z m-5795
-76 c0 -3 -31 -29 -70 -59 -38 -29 -70 -55 -70 -58 0 -3 70 -96 156 -207 l155
-201 -43 -37 c-24 -21 -47 -38 -53 -38 -5 1 -77 89 -160 196 -82 108 -153 198
-158 201 -4 2 -38 -18 -74 -46 -36 -28 -69 -51 -73 -51 -5 0 -22 17 -39 38
l-30 39 197 152 197 152 32 -38 c18 -21 32 -40 33 -43z m-1217 -205 c11 -149
-24 -303 -93 -406 -46 -71 -148 -179 -169 -179 -6 0 -7 15 -3 38 7 38 7 118 1
277 -4 83 -2 95 25 148 43 89 167 204 222 207 7 0 13 -33 17 -85z m8138 -45
c164 -9 205 -24 290 -111 57 -57 109 -146 109 -184 0 -22 0 -22 -109 -8 -102
12 -225 48 -299 87 -45 24 -133 107 -179 169 -57 79 -57 89 5 70 26 -8 108
-19 183 -23z m-7391 -146 c22 -9 40 -20 40 -24 0 -5 -12 -29 -27 -54 -27 -43
-30 -45 -63 -39 -77 15 -135 -8 -165 -67 -19 -38 -19 -103 1 -141 23 -45 83
-109 133 -141 132 -83 275 27 217 167 -16 37 -14 40 62 79 l33 17 20 -46 c25
-56 27 -136 6 -187 -24 -57 -100 -133 -159 -158 -66 -28 -161 -25 -228 8 -68
32 -157 126 -193 200 -26 56 -29 71 -25 130 6 80 30 131 90 189 79 77 172 101
258 67z m6895 -58 c50 -21 133 -103 161 -158 28 -55 31 -115 8 -161 -30 -59
-32 -60 -84 -15 -48 41 -48 42 -33 71 18 37 11 67 -27 111 -39 44 -81 62 -109
46 -35 -18 -26 -62 36 -178 51 -94 58 -114 58 -164 0 -48 -5 -62 -31 -94 -16
-21 -42 -47 -56 -57 -37 -28 -118 -34 -172 -13 -53 20 -152 116 -177 171 -28
60 -25 137 7 196 30 53 31 53 92 0 33 -28 33 -29 18 -59 -32 -63 -8 -131 63
-179 44 -30 76 -29 107 3 32 31 28 53 -25 144 -54 91 -71 136 -71 187 0 120
120 197 235 149z m-7978 -73 c5 -16 8 -98 7 -183 -1 -174 -9 -204 -83 -329
-38 -64 -112 -151 -129 -151 -4 0 -6 31 -4 69 3 46 -3 106 -18 179 -26 128
-20 182 31 271 47 81 137 167 181 170 4 1 11 -11 15 -26z m8811 -104 c124 -13
177 -36 247 -109 84 -89 152 -252 98 -236 -10 2 -56 12 -103 21 -46 10 -123
34 -170 54 -72 30 -97 48 -166 116 -73 72 -144 171 -144 201 0 8 25 3 71 -13
39 -13 114 -29 167 -34z m-8245 -202 l38 -32 -100 -130 c-56 -71 -101 -132
-101 -135 0 -6 96 -80 104 -80 3 0 46 54 97 120 50 66 94 120 98 120 3 0 23
-15 43 -33 l38 -32 -96 -123 c-53 -68 -94 -125 -92 -126 1 -1 31 -24 65 -49
34 -26 63 -47 66 -47 2 0 50 61 107 135 57 74 107 135 110 135 3 0 22 -15 43
-33 l37 -32 -145 -188 -146 -188 -37 29 c-20 16 -131 102 -245 190 -114 88
-209 163 -210 165 -3 5 276 367 283 367 3 0 22 -15 43 -33z m7896 -142 c114
-154 130 -191 111 -259 -16 -58 -90 -130 -149 -146 -87 -23 -145 7 -237 122
l-62 77 -93 -69 c-51 -39 -94 -70 -95 -70 -1 0 -19 23 -39 51 -36 48 -37 51
-19 64 11 7 123 92 249 188 127 97 231 176 232 176 0 1 46 -60 102 -134z
m-8754 -7 c41 -180 30 -323 -38 -462 -41 -84 -98 -166 -117 -166 -4 0 -10 37
-13 83 -3 45 -17 120 -32 167 -35 114 -32 182 15 276 34 70 126 174 154 174
10 0 20 -23 31 -72z m9236 -8 c35 -16 107 -38 160 -49 53 -10 114 -28 135 -39
87 -44 181 -185 191 -288 l6 -53 -106 33 c-138 43 -267 116 -322 181 -68 80
-135 195 -135 230 0 19 -3 20 71 -15z m-9487 -452 c41 -147 46 -280 16 -379
-24 -82 -82 -198 -110 -224 -17 -15 -18 -12 -29 60 -6 41 -26 114 -45 161 -19
47 -38 105 -41 129 -14 92 44 244 121 315 24 22 47 40 51 40 5 0 21 -46 37
-102z m9391 -113 c59 -102 108 -193 109 -201 0 -8 -17 -26 -40 -40 l-41 -24
-83 145 c-45 80 -84 145 -86 145 -3 0 -29 -14 -60 -31 -33 -19 -53 -37 -50
-44 2 -7 37 -68 76 -135 39 -68 67 -126 63 -130 -4 -4 -25 -17 -45 -29 l-36
-22 -57 98 c-87 149 -98 168 -101 171 -3 4 -144 -77 -144 -83 0 -2 38 -69 85
-150 47 -81 84 -149 83 -150 -2 -1 -22 -14 -45 -29 l-42 -26 -54 93 c-156 266
-186 322 -174 329 7 3 125 72 262 152 138 80 255 145 262 145 6 1 59 -82 118
-184z m326 165 c40 -29 110 -59 191 -81 39 -11 87 -28 107 -39 88 -44 172
-184 179 -297 3 -36 0 -63 -5 -63 -32 0 -212 86 -280 133 -84 60 -135 121
-191 233 -30 60 -51 134 -37 134 4 0 20 -9 36 -20z m-8498 -220 c11 -9 -214
-382 -227 -377 -6 3 -127 74 -268 159 l-256 154 30 53 c20 34 35 50 45 47 12
-5 347 -202 410 -242 20 -13 24 -9 79 84 31 53 68 114 81 135 l24 38 37 -22
c20 -12 41 -25 45 -29z m-1383 -493 c11 -94 11 -109 -8 -188 -23 -96 -60 -187
-85 -208 -19 -15 -15 -22 -41 77 -9 34 -36 102 -60 150 -25 48 -47 106 -51
129 -14 89 43 250 112 320 l37 36 41 -107 c31 -79 46 -134 55 -209z m10122
263 c29 -22 89 -54 133 -71 116 -45 148 -63 185 -105 65 -75 120 -234 105
-305 -4 -16 -9 -29 -11 -29 -25 0 -199 103 -260 154 -85 71 -127 130 -173 240
-28 68 -49 156 -37 156 3 0 29 -18 58 -40z m-9485 -25 c2 -1 -26 -66 -62 -146
-35 -79 -65 -149 -65 -155 0 -10 17 -20 87 -50 l31 -13 63 139 c34 77 66 140
71 140 16 0 88 -32 88 -40 0 -4 -27 -67 -60 -140 -33 -73 -60 -136 -60 -140 0
-9 141 -71 150 -65 4 2 37 74 75 158 l68 155 46 -20 c25 -12 47 -22 49 -23 3
-2 -184 -425 -191 -432 -3 -2 -133 53 -290 123 l-285 126 50 112 c27 61 70
157 94 213 l46 101 46 -20 c26 -11 48 -21 49 -23z m9089 -159 c163 -76 218
-316 97 -429 l-30 -28 -37 50 -37 51 25 33 c51 67 25 169 -54 210 -89 46 -298
-41 -330 -138 -24 -74 22 -159 95 -175 22 -5 50 -7 61 -4 20 5 22 1 29 -56 4
-34 5 -64 1 -67 -12 -12 -110 -2 -149 15 -56 25 -110 87 -136 156 -37 100 -21
197 45 275 98 114 297 165 420 107z m719 -363 c50 -25 105 -57 122 -71 43 -32
98 -143 113 -230 12 -66 8 -136 -8 -146 -4 -2 -46 19 -92 47 -99 60 -219 176
-255 247 -39 77 -75 194 -75 245 l0 47 53 -46 c28 -26 93 -67 142 -93z
m-10673 19 c61 -125 93 -259 84 -351 -9 -84 -42 -209 -65 -245 -21 -32 -22
-31 -46 47 -10 33 -36 87 -57 120 -81 128 -91 159 -86 255 6 100 32 178 79
235 17 20 34 37 37 37 4 0 28 -44 54 -98z m10287 -404 c34 -128 61 -236 61
-240 0 -10 -79 -30 -94 -25 -6 3 -20 39 -30 81 -10 42 -22 78 -26 81 -5 3
-118 -24 -252 -59 -180 -49 -244 -62 -250 -53 -9 15 -31 107 -27 111 2 1 112
31 244 66 132 34 243 64 247 66 5 3 -16 97 -36 160 -6 19 -1 23 31 32 72 19
65 32 132 -220z m-9758 162 l37 -10 -23 -90 -23 -90 37 -9 c20 -5 128 -33 241
-62 113 -28 209 -55 213 -59 12 -11 -13 -120 -27 -120 -6 1 -119 29 -251 63
-157 41 -242 59 -246 53 -4 -6 -15 -46 -25 -88 -10 -43 -22 -78 -26 -78 -5 0
-29 5 -54 11 -34 9 -43 15 -40 28 8 27 116 454 116 458 0 6 35 3 71 -7z
m10151 -163 c29 -29 82 -70 118 -92 36 -21 82 -51 102 -67 78 -61 132 -237
108 -353 -6 -31 -16 -55 -20 -53 -38 13 -180 134 -230 195 -70 85 -92 129
-120 239 -18 68 -27 184 -16 184 3 0 29 -24 58 -53z m-10815 -75 c75 -125 113
-243 113 -352 0 -101 -15 -191 -39 -239 l-18 -34 -33 72 c-18 39 -60 106 -92
149 -32 42 -65 99 -74 126 -31 91 -1 266 57 340 11 14 23 26 27 26 4 0 31 -40
59 -88z m10535 -432 c27 -188 28 -277 2 -320 -29 -50 -86 -80 -155 -80 -69 0
-115 27 -145 87 l-21 42 -30 -43 c-28 -39 -210 -203 -218 -195 -1 2 -6 38 -9
79 l-7 75 72 60 c39 33 89 79 110 102 35 38 39 48 39 93 0 59 5 58 -155 35
-69 -10 -101 -11 -106 -4 -6 11 -21 111 -16 115 5 5 574 82 597 80 23 -1 25
-6 42 -126z m373 30 c22 -28 77 -78 122 -112 99 -73 130 -111 154 -190 28 -90
22 -272 -10 -292 -4 -3 -46 30 -92 74 -97 90 -180 208 -203 290 -29 103 -40
280 -17 280 3 0 24 -23 46 -50z m-10135 -15 c151 -19 279 -35 284 -35 11 0 1
-119 -11 -130 -4 -4 -101 -50 -216 -101 -114 -52 -201 -95 -195 -97 7 -1 96
-13 196 -26 101 -14 185 -26 187 -28 2 -2 0 -28 -3 -58 -7 -51 -9 -55 -32 -53
-14 2 -152 19 -306 38 -155 19 -284 35 -288 35 -6 0 -1 54 9 106 4 16 51 41
212 114 215 96 241 110 208 110 -41 1 -375 47 -380 52 -3 3 -3 29 1 57 6 47 9
51 33 51 14 0 150 -16 301 -35z m-860 -81 c84 -113 137 -242 145 -350 7 -81
-4 -186 -25 -239 l-11 -30 -35 66 c-19 36 -66 101 -103 143 -79 88 -100 126
-111 205 -8 63 3 173 22 217 17 40 39 74 47 74 4 0 36 -39 71 -86z m11050
-391 c19 -30 72 -89 117 -130 116 -105 138 -152 138 -293 0 -88 -4 -113 -23
-155 l-23 -50 -70 75 c-81 88 -172 242 -188 318 -18 88 -13 293 8 292 3 -1 22
-26 41 -57z m-10991 -254 c27 -47 54 -103 60 -125 18 -62 25 -242 12 -292
l-12 -44 -31 49 c-16 26 -72 91 -123 143 -59 59 -102 112 -114 141 -40 91 -37
235 6 327 l17 36 68 -75 c38 -41 91 -112 117 -160z m10629 107 c2 -16 1 -44
-3 -63 l-6 -34 -225 2 c-211 2 -227 1 -252 -18 -56 -42 -65 -148 -16 -194 25
-24 30 -24 260 -27 l234 -4 0 -65 0 -65 -237 3 c-230 4 -240 5 -288 29 -28 14
-60 40 -72 58 -30 46 -46 132 -38 201 13 103 48 159 120 192 36 17 64 19 280
16 l240 -2 3 -29z m-9795 -2 l197 -7 0 -65 0 -65 -177 7 c-98 3 -240 9 -315
12 l-138 7 0 32 c0 18 3 47 6 65 l7 32 111 -6 c61 -3 200 -9 309 -12z m47
-245 c60 -27 114 -81 141 -143 32 -71 33 -201 3 -267 -27 -58 -78 -109 -140
-139 -43 -21 -63 -24 -164 -25 -106 0 -119 2 -165 27 -107 56 -150 135 -150
273 0 78 4 97 27 140 33 63 70 98 132 125 98 44 229 47 316 9z m10120 -97 c17
-32 66 -97 109 -145 93 -102 111 -145 111 -258 0 -126 -51 -261 -84 -218 -6 8
-31 42 -56 74 -60 79 -70 95 -111 190 -34 79 -34 82 -34 225 0 100 4 152 13
168 7 12 15 22 17 22 2 0 18 -26 35 -58z m-10988 -255 c34 -48 66 -109 79
-147 21 -66 38 -253 25 -285 -5 -15 -9 -13 -28 11 -42 57 -94 107 -165 160
-81 60 -119 115 -139 203 -23 94 -14 219 18 258 15 19 140 -101 210 -200z
m10313 -28 c154 -22 281 -42 282 -43 6 -5 -20 -171 -27 -179 -5 -5 -99 -20
-210 -33 -111 -12 -204 -25 -206 -27 -2 -2 84 -41 191 -87 107 -46 195 -86
195 -89 -1 -23 -28 -173 -33 -177 -5 -5 -606 81 -613 88 -4 5 11 107 17 112 2
2 103 -11 224 -30 121 -18 223 -32 228 -31 4 1 -90 43 -210 93 l-218 91 3 58
c1 32 4 61 6 63 3 2 98 13 213 23 312 30 317 25 -79 84 -111 16 -118 18 -113
39 2 11 7 38 10 59 6 35 8 38 33 33 15 -3 153 -24 307 -47z m730 -349 c73 -86
95 -140 95 -236 0 -95 -28 -199 -65 -241 -13 -16 -25 -26 -28 -23 -14 16 -87
130 -101 158 -46 89 -76 200 -76 279 0 93 14 183 37 236 l17 38 37 -78 c21
-43 59 -103 84 -133z m-11117 14 c46 -36 111 -101 146 -145 79 -100 115 -197
123 -334 l6 -90 -74 71 c-41 39 -99 85 -130 102 -114 65 -173 163 -185 305 -6
69 8 157 24 157 4 0 44 -30 90 -66z m1102 2 c69 -46 108 -174 76 -251 -22 -52
-43 -74 -91 -96 -62 -29 -70 -26 -87 36 l-16 56 32 13 c42 17 59 41 58 77 -1
41 -28 69 -65 69 -16 0 -126 -18 -244 -41 -161 -30 -218 -37 -223 -29 -12 19
-21 103 -13 111 5 4 98 23 208 43 110 20 207 39 215 41 36 9 115 -6 150 -29z
m9923 -505 c64 -97 78 -135 79 -213 0 -105 -44 -231 -99 -280 -18 -16 -20 -14
-66 75 -67 130 -100 259 -93 359 6 91 29 185 58 242 l21 40 27 -77 c15 -42 48
-108 73 -146z m-10928 4 c105 -68 207 -175 245 -257 42 -90 85 -268 65 -268
-3 0 -33 23 -67 50 -35 28 -101 70 -147 93 -128 65 -184 142 -213 297 -9 50
-5 120 8 142 6 10 2 11 109 -57z m10725 -288 c0 -39 36 -136 86 -232 46 -90
46 -90 42 -175 -3 -70 -10 -98 -37 -155 -29 -62 -84 -135 -102 -135 -3 0 -24
46 -47 103 -70 179 -78 321 -27 474 39 116 85 181 85 120z m-10434 -305 c63
-55 89 -86 118 -141 46 -88 76 -174 76 -217 l0 -34 -47 37 c-44 33 -79 51
-226 116 -68 30 -114 79 -155 164 -34 73 -54 187 -39 227 10 24 177 -69 273
-152z m10330 -367 c63 -140 54 -259 -28 -387 -29 -46 -81 -98 -97 -98 -5 0
-22 48 -39 108 -39 138 -49 267 -26 354 20 78 77 205 107 236 l22 24 13 -78
c7 -43 29 -114 48 -159z m-10275 -8 c78 -34 203 -129 244 -185 46 -62 105
-182 112 -226 3 -20 3 -36 1 -36 -3 0 -32 16 -64 35 -33 20 -97 47 -144 62
-109 33 -146 52 -192 100 -66 69 -131 236 -113 293 6 19 7 19 53 1 26 -11 72
-30 103 -44z m1175 -37 c57 -25 122 -93 164 -171 29 -54 35 -77 38 -146 4 -74
2 -88 -22 -137 -32 -65 -96 -125 -175 -163 -48 -24 -68 -28 -141 -28 -102 0
-142 18 -213 94 -177 189 -141 429 81 538 29 14 67 29 85 34 45 11 133 2 183
-21z m7977 -1 c50 -13 103 -61 118 -106 11 -34 8 -98 -7 -136 -5 -15 -1 -15
39 3 32 14 83 23 173 29 71 5 130 8 132 6 2 -1 -16 -34 -39 -72 l-42 -70 -135
-12 c-74 -6 -149 -18 -167 -25 -33 -14 -81 -78 -71 -95 3 -5 53 -37 110 -70
l104 -62 -35 -60 c-19 -32 -38 -57 -42 -55 -76 40 -530 319 -528 324 36 68
179 298 205 331 33 41 98 80 132 81 8 0 32 -5 53 -11z m911 -424 c14 -44 26
-101 26 -127 0 -94 -84 -254 -160 -304 -22 -15 -42 -25 -44 -23 -1 2 -13 50
-24 107 -24 110 -28 238 -11 312 14 63 92 218 131 260 l32 35 12 -90 c6 -49
23 -126 38 -170z m-9815 3 c60 -22 182 -102 220 -143 71 -77 166 -243 150
-260 -3 -2 -31 9 -64 26 -33 16 -91 36 -130 45 -159 37 -176 43 -232 96 -64
61 -124 173 -131 247 l-4 50 83 -25 c45 -14 94 -30 108 -36z m1419 -227 c110
-134 123 -157 124 -220 0 -56 -17 -93 -64 -138 -40 -38 -76 -53 -130 -53 -68
0 -121 33 -200 126 -82 96 -63 96 -181 -3 l-74 -62 -42 49 c-22 27 -41 52 -40
57 0 4 107 97 237 206 l237 197 20 -23 c11 -13 62 -74 113 -136z m7075 126
l37 -32 -115 -139 c-63 -76 -115 -141 -115 -144 1 -7 84 -75 98 -80 5 -1 56
54 113 123 57 69 107 125 111 125 5 0 24 -15 43 -32 l35 -33 -105 -125 c-57
-69 -104 -129 -104 -135 0 -9 111 -105 121 -105 2 0 57 65 123 144 l119 144
38 -30 c21 -16 38 -33 38 -38 0 -12 -322 -396 -329 -392 -11 5 -449 373 -461
387 -9 11 20 51 147 204 87 105 160 190 163 190 3 0 22 -14 43 -32z m1042
-165 c0 -51 8 -117 19 -160 36 -142 6 -250 -97 -360 -59 -62 -105 -91 -117
-72 -4 7 -12 55 -18 108 -13 115 3 270 35 343 41 91 141 229 167 229 7 0 11
-29 11 -88z m-9169 -204 c70 -33 103 -56 154 -108 61 -63 140 -179 140 -207 0
-8 -21 -4 -66 13 -37 14 -116 31 -175 39 -66 9 -125 23 -150 36 -91 46 -199
198 -199 279 l0 37 104 -23 c60 -14 140 -41 192 -66z m7794 -92 c0 -5 -32 -39
-71 -75 l-71 -66 171 -187 c94 -103 171 -191 171 -197 0 -5 -22 -27 -48 -50
l-49 -40 -161 178 c-89 98 -169 184 -177 191 -12 10 -27 1 -87 -55 l-72 -67
-34 37 c-18 20 -32 40 -30 44 2 5 90 88 197 185 l195 176 33 -32 c18 -17 33
-36 33 -42z m-6304 -122 c101 -91 184 -168 184 -172 -1 -9 -58 -72 -66 -72 -3
0 -66 54 -139 120 l-133 120 -47 -52 c-37 -41 -43 -54 -33 -63 7 -7 63 -56
123 -110 61 -54 111 -101 112 -104 2 -3 -12 -23 -30 -44 l-32 -39 -124 111
c-69 61 -128 111 -132 111 -8 0 -109 -111 -109 -119 0 -4 63 -62 140 -130
l141 -125 -37 -37 -37 -38 -36 31 c-20 17 -107 94 -193 171 l-157 140 42 48
c134 152 372 418 375 418 2 1 87 -74 188 -165z m7401 -6 c0 -62 1 -156 4 -208
3 -89 2 -99 -25 -149 -38 -74 -121 -159 -181 -187 l-50 -24 -3 119 c-3 140 22
276 65 349 38 65 116 160 155 188 17 13 33 24 33 24 1 0 2 -51 2 -112z m-8782
-123 c110 -15 249 -61 308 -102 53 -37 163 -156 187 -203 23 -45 20 -46 -41
-24 -25 9 -100 19 -175 24 -98 6 -142 13 -178 28 -61 27 -155 122 -189 191
-26 53 -35 101 -19 101 4 0 52 -7 107 -15z m7350 -324 c92 -134 169 -249 171
-256 5 -12 -86 -85 -106 -85 -6 0 -106 38 -222 85 -117 47 -216 85 -220 85 -4
0 42 -72 103 -159 60 -88 109 -163 109 -168 0 -8 -100 -77 -104 -71 -2 2 -81
117 -176 257 l-174 254 32 27 c73 61 58 62 304 -38 123 -50 225 -89 226 -87 2
2 -47 78 -110 170 -91 135 -110 168 -98 175 8 5 31 20 50 34 19 14 38 24 42
23 4 -1 82 -112 173 -246z m-5572 133 c223 -145 257 -181 257 -267 0 -57 -17
-94 -64 -134 -43 -39 -96 -48 -157 -30 l-47 14 16 -36 c17 -40 31 -311 16
-311 -5 0 -36 18 -69 40 l-60 40 -11 157 -11 157 -43 38 c-23 21 -45 38 -49
38 -3 0 -37 -48 -75 -105 -38 -58 -72 -105 -75 -105 -3 0 -30 16 -59 35 -33
23 -50 40 -45 48 40 67 334 507 338 507 4 0 66 -39 138 -86z m6695 19 c-6 -16
-14 -104 -17 -198 -6 -150 -10 -175 -30 -214 -45 -86 -162 -188 -235 -205
l-29 -7 6 108 c7 121 48 277 88 335 69 99 181 208 215 208 11 0 11 -5 2 -27z
m-7947 -237 c95 -26 135 -49 228 -126 60 -50 120 -125 108 -136 -3 -3 -30 -1
-59 5 -30 7 -115 11 -189 9 -120 -2 -139 0 -182 19 -91 42 -217 185 -217 248
0 17 8 18 113 12 72 -4 143 -15 198 -31z m6145 -63 c11 -29 14 -48 8 -50 -28
-9 -314 -153 -314 -157 0 -14 55 -116 62 -116 5 0 71 32 148 70 77 39 143 70
148 70 4 0 18 -20 30 -45 l22 -45 -150 -75 c-83 -41 -150 -77 -150 -80 0 -10
70 -145 75 -145 3 0 77 36 165 80 88 44 163 80 168 80 4 0 18 -20 30 -45 l22
-45 -93 -46 c-50 -26 -156 -77 -234 -114 l-142 -68 -135 275 c-75 151 -136
278 -136 282 0 9 429 221 447 221 6 0 19 -21 29 -47z m1464 -30 c0 -5 -7 -30
-16 -58 -9 -27 -20 -104 -25 -169 -6 -78 -16 -134 -29 -162 -29 -68 -113 -149
-193 -189 -63 -31 -107 -44 -107 -30 0 3 7 50 15 106 16 108 62 239 106 305
60 89 250 239 249 197z m-5703 -70 l62 -28 -6 -235 c-3 -129 -8 -283 -12 -341
l-6 -107 -65 32 -65 31 3 76 4 75 -121 57 c-67 31 -125 57 -129 57 -3 0 -30
-23 -58 -51 l-52 -51 -61 27 c-34 16 -60 33 -58 39 5 14 480 445 492 445 6 1
38 -11 72 -26z m740 -277 c7 -7 -20 -88 -32 -92 -5 -2 -50 9 -97 25 -48 16
-89 27 -91 23 -3 -4 -39 -113 -82 -242 -43 -129 -79 -237 -81 -239 -4 -4 -66
13 -110 29 -23 9 -23 10 57 247 43 131 79 242 79 248 0 6 -41 24 -91 40 -99
32 -99 32 -70 107 l10 27 252 -84 c138 -47 254 -86 256 -89z m-2280 109 c112
-20 201 -67 301 -159 77 -70 75 -72 -41 -72 -56 0 -148 -4 -204 -8 -100 -9
-102 -8 -165 21 -76 37 -141 92 -180 152 -34 54 -35 68 -5 74 52 10 218 6 294
-8z m5165 -11 c42 -14 118 -74 118 -92 0 -4 -26 -22 -59 -40 -52 -29 -60 -30
-72 -16 -25 31 -71 46 -121 42 -52 -5 -89 -27 -122 -72 -32 -43 -29 -143 8
-223 40 -87 72 -115 141 -121 98 -8 159 38 171 128 l7 50 68 0 c65 0 69 -1 69
-23 0 -13 -7 -48 -16 -78 -21 -70 -88 -137 -170 -170 -85 -33 -191 -32 -259 3
-65 34 -108 80 -140 149 -66 146 -53 273 38 367 91 94 230 134 339 96z m1703
-81 c-30 -72 -47 -135 -59 -215 -8 -51 -22 -112 -31 -135 -34 -85 -186 -197
-284 -210 -49 -7 -49 -10 -16 119 22 88 71 199 119 270 21 33 133 125 196 161
53 32 86 36 75 10z m-4475 -35 c29 -7 54 -17 57 -24 3 -9 -133 -593 -141 -601
-1 -1 -31 5 -67 15 -54 15 -63 21 -61 37 4 22 117 489 133 548 11 42 9 41 79
25z m460 -79 c36 -5 84 -19 107 -29 61 -27 127 -93 153 -152 19 -45 22 -65 18
-147 -5 -113 -35 -189 -95 -242 -65 -56 -117 -74 -218 -73 -113 1 -189 28
-257 92 -67 63 -92 131 -85 237 7 102 28 162 79 220 45 51 98 82 161 95 59 11
64 11 137 -1z m1415 0 c69 -19 135 -84 135 -132 0 -19 -13 -23 -83 -32 -48 -6
-57 -5 -57 8 0 9 -12 25 -26 36 -32 25 -98 28 -151 6 -42 -18 -53 -30 -53 -63
0 -32 42 -47 172 -61 60 -6 125 -18 145 -26 74 -31 113 -88 113 -165 0 -122
-102 -199 -276 -208 -110 -6 -152 6 -210 60 -37 34 -74 101 -62 113 2 3 32 11
65 19 l61 14 13 -30 c26 -62 123 -87 206 -53 44 18 62 41 63 77 0 51 -16 58
-180 77 -116 14 -154 26 -194 64 -63 60 -67 149 -9 218 58 69 220 107 328 78z
m-482 -121 c4 -46 7 -188 7 -315 l0 -233 -70 0 -69 0 -136 195 c-75 107 -137
195 -139 195 -2 0 -1 -90 2 -200 l5 -200 -65 0 -65 0 -6 227 c-4 124 -7 266
-7 315 l0 88 68 0 68 0 138 -200 c75 -110 140 -200 143 -200 3 0 3 89 0 199
-4 109 -4 201 0 205 3 3 32 6 63 6 l57 0 6 -82z m-3325 22 c68 -12 199 -80
262 -137 28 -25 50 -48 50 -51 0 -4 -37 -7 -83 -7 -53 -1 -114 -9 -172 -24
-138 -36 -219 -20 -335 68 -47 36 -110 110 -110 131 0 5 42 15 93 23 93 15
191 14 295 -3z m5986 -117 c-18 -37 -43 -107 -54 -157 -29 -123 -62 -180 -133
-232 -82 -61 -234 -113 -251 -86 -6 10 41 159 68 210 39 76 108 172 143 200
91 71 199 129 245 131 13 1 10 -11 -18 -66z m-5503 -149 c69 -20 196 -86 234
-121 l29 -28 -84 -11 c-47 -6 -126 -25 -176 -43 -50 -17 -107 -31 -127 -31
-51 0 -149 33 -206 70 -50 32 -121 102 -121 120 0 9 23 17 135 44 83 20 248
20 316 0z m5091 -71 c-33 -47 -68 -124 -90 -199 -12 -38 -35 -89 -52 -113 -61
-84 -217 -157 -317 -149 l-43 3 44 97 c48 106 125 219 186 271 77 65 278 153
288 126 2 -5 -5 -21 -16 -36z m-4562 -166 c91 -32 180 -79 180 -95 0 -4 -32
-13 -72 -20 -39 -7 -112 -31 -162 -53 -109 -49 -171 -58 -251 -34 -102 29
-200 88 -225 135 -9 16 1 22 78 50 95 34 166 47 282 49 61 1 93 -5 170 -32z
m4100 -64 c-27 -38 -65 -107 -85 -155 -57 -137 -133 -199 -282 -234 -59 -13
-153 -13 -153 1 0 23 110 195 165 257 60 69 81 85 160 124 92 46 168 72 217
73 l28 1 -50 -67z m-3683 -88 c112 -23 245 -77 230 -92 -2 -2 -30 -10 -61 -18
-32 -9 -107 -41 -167 -72 -122 -63 -179 -74 -271 -53 -101 24 -218 90 -218
123 0 19 176 90 269 108 110 22 135 22 218 4z m3226 -70 c-26 -30 -73 -98
-104 -152 -63 -110 -105 -149 -196 -183 -67 -25 -195 -37 -235 -21 l-27 10 63
93 c67 98 172 201 241 235 37 19 144 56 190 66 11 3 42 5 68 6 l48 1 -48 -55z
m-2656 -70 c75 -17 133 -41 133 -53 0 -5 -19 -14 -42 -21 -48 -14 -165 -76
-247 -130 -53 -35 -57 -36 -145 -35 -66 0 -107 6 -150 22 -56 21 -126 65 -126
81 0 18 180 107 269 133 106 30 184 31 308 3z m2216 -1 c10 -4 -1 -20 -41 -57
-30 -29 -81 -91 -114 -140 -84 -125 -152 -164 -303 -174 -79 -5 -170 9 -163
27 2 4 31 42 65 84 77 93 196 188 271 217 98 36 244 59 285 43z m-1700 -60
c15 -5 8 -12 -35 -36 -60 -33 -103 -72 -156 -141 -20 -27 -56 -60 -78 -73 -51
-30 -145 -41 -229 -25 -62 11 -168 59 -168 76 0 5 38 35 84 66 93 62 251 128
338 140 62 9 216 4 244 -7z m380 -23 c15 -5 11 -11 -24 -30 -23 -13 -88 -68
-145 -122 -85 -81 -112 -101 -155 -113 -61 -18 -191 -21 -253 -5 l-43 11 51
55 c127 141 182 181 273 202 46 11 271 13 296 2z m841 0 c16 -6 13 -10 -20
-33 -53 -36 -97 -79 -155 -153 -61 -78 -107 -110 -189 -131 -81 -20 -210 -16
-259 10 l-34 18 74 74 c68 69 160 138 235 177 70 36 291 60 348 38z m-470 -37
c16 -10 12 -15 -35 -44 -29 -18 -94 -72 -144 -120 -114 -110 -150 -125 -290
-124 -71 0 -112 5 -139 18 l-40 17 25 16 c13 9 65 55 114 103 93 91 147 125
218 140 56 12 267 7 291 -6z"/>
<path d="M5376 10784 c-16 -58 -26 -108 -23 -111 8 -7 158 8 155 17 -24 58
-94 200 -99 200 -3 0 -18 -48 -33 -106z"/>
<path d="M3925 10588 c-89 -51 -105 -152 -45 -275 44 -89 85 -118 166 -118 70
0 102 17 142 76 20 29 23 44 20 95 -5 76 -54 183 -100 216 -47 33 -131 36
-183 6z"/>
<path d="M3314 10269 c-124 -65 -118 -54 -72 -132 l39 -67 52 30 c110 63 137
87 137 122 -1 37 -14 59 -47 76 -29 16 -21 18 -109 -29z"/>
<path d="M5550 10124 c-19 -2 -87 -9 -150 -15 -260 -24 -601 -97 -866 -185
-358 -118 -680 -275 -1004 -490 -916 -606 -1557 -1559 -1774 -2635 -180 -896
-67 -1806 327 -2631 142 -299 365 -642 570 -881 l61 -70 14 51 c13 47 13 58
-7 132 -11 44 -21 91 -21 105 0 13 -7 50 -16 82 -8 32 -20 87 -25 123 -5 36
-12 79 -15 95 l-6 30 1391 648 1390 648 43 -28 c24 -15 69 -41 102 -58 64 -33
173 -141 205 -203 47 -92 57 -178 35 -298 -6 -30 -4 -31 86 -77 100 -52 139
-58 171 -26 18 18 20 28 14 83 l-7 63 38 31 c51 43 83 48 139 23 25 -11 52
-18 59 -15 7 3 23 23 35 45 19 34 21 45 12 71 -16 47 -13 74 14 128 27 54 75
194 75 222 0 32 19 29 112 -19 99 -51 97 -48 82 -119 -6 -29 -3 -32 53 -61
118 -61 120 -63 146 -133 14 -36 33 -92 42 -125 9 -33 30 -94 46 -135 23 -62
35 -78 61 -92 81 -41 140 -68 149 -68 5 0 17 16 26 35 10 20 27 38 39 41 31 8
127 -47 136 -77 4 -13 21 -78 38 -144 69 -264 145 -465 232 -605 24 -40 20
-77 -10 -108 -15 -16 -34 -56 -49 -104 -5 -15 17 -61 98 -205 25 -43 20 -65
-9 -47 -9 6 -62 35 -117 64 -143 75 -155 83 -155 98 0 27 34 78 86 127 30 28
54 58 54 67 0 20 -31 38 -275 163 -104 54 -217 112 -250 130 -49 26 -75 33
-137 37 -83 5 -100 -3 -43 -22 19 -6 35 -15 35 -19 0 -4 31 -22 69 -40 38 -18
72 -40 75 -48 5 -13 -12 -84 -34 -140 -15 -38 123 -205 182 -221 34 -8 49 -29
26 -36 -57 -17 -145 -26 -270 -29 -117 -3 -148 0 -148 10 0 7 5 13 12 13 6 0
39 14 74 30 65 32 86 57 56 66 -20 6 -43 19 -105 57 -42 26 -54 28 -164 30
-103 3 -126 6 -178 29 l-60 27 -60 -59 c-33 -33 -66 -60 -73 -60 -7 0 -39 14
-72 30 -33 17 -74 30 -91 30 -85 0 -306 -151 -388 -265 -40 -56 -59 -61 -346
-95 -109 -13 -168 -21 -192 -26 -23 -4 -43 -48 -43 -94 0 -15 -7 -47 -15 -71
-9 -24 -29 -94 -46 -157 -41 -156 -105 -252 -168 -252 -36 0 -51 27 -51 93 0
33 -5 87 -12 118 -11 54 -10 59 13 96 46 70 81 153 75 176 -5 23 -20 33 -151
102 -38 20 -95 60 -125 89 -88 84 -138 103 -232 84 -65 -12 -65 -12 -182 90
-79 69 -207 112 -333 112 -50 0 -103 -4 -117 -10 -63 -24 -244 -218 -288 -311
-67 -139 -68 -143 -68 -250 0 -56 4 -118 10 -138 5 -20 12 -52 15 -71 3 -20
21 -63 41 -96 30 -51 50 -71 117 -114 44 -29 88 -55 97 -57 10 -3 48 20 91 54
140 111 139 111 231 55 35 -21 87 -51 116 -67 70 -38 70 -60 1 -115 -29 -23
-72 -53 -97 -68 l-46 -26 100 -48 c116 -56 305 -131 459 -183 100 -33 402
-115 425 -115 5 0 -24 50 -65 111 -41 61 -75 115 -75 120 0 5 -31 43 -70 85
-64 70 -84 104 -62 104 5 0 63 -18 130 -40 66 -22 130 -40 140 -40 17 0 20 -9
24 -72 5 -96 38 -164 91 -191 65 -33 46 -74 -38 -79 -49 -3 -48 -3 40 -20 264
-51 406 -62 760 -62 294 0 363 3 510 22 668 88 1244 302 1795 668 610 405
1098 958 1425 1617 578 1162 578 2532 0 3694 -585 1178 -1687 2010 -2975 2247
-251 46 -388 58 -705 61 -165 2 -316 1 -335 -1z m-290 -378 l53 -128 156 7
c136 6 154 5 141 -8 -8 -7 -63 -53 -122 -101 l-107 -87 13 -37 c8 -20 32 -84
55 -141 23 -57 41 -107 39 -111 -2 -4 -61 30 -131 76 l-128 84 -130 -101 c-72
-56 -132 -99 -134 -97 -2 1 14 68 36 148 21 80 39 150 39 155 0 6 -59 48 -130
95 l-129 85 42 7 c23 3 74 7 113 7 39 1 92 4 116 7 l46 6 31 122 c18 66 37
136 43 155 l11 34 12 -24 c7 -13 36 -82 65 -153z m-1040 -560 l53 -128 156 7
c136 6 154 5 141 -8 -8 -7 -63 -53 -122 -101 l-107 -87 13 -37 c8 -20 32 -84
55 -141 23 -57 41 -107 39 -111 -2 -4 -61 30 -131 76 l-128 84 -130 -101 c-72
-56 -132 -99 -134 -97 -2 1 14 68 36 148 21 80 39 150 39 155 0 6 -59 48 -130
95 l-129 85 42 7 c23 3 74 7 113 7 39 1 92 4 116 7 l46 6 31 122 c18 66 37
136 43 155 l11 34 12 -24 c7 -13 36 -82 65 -153z m3879 67 c-1 -54 -4 -141 -8
-193 l-6 -95 -45 -24 c-124 -65 -144 -91 -71 -91 l37 0 -3 -97 c-2 -54 -6
-134 -9 -179 l-6 -81 -96 -63 c-53 -35 -110 -75 -126 -89 -17 -16 -27 -20 -24
-11 2 8 56 50 119 93 l114 77 6 63 c4 34 7 109 8 167 l1 105 -57 0 c-32 0 -60
5 -62 10 -2 6 36 33 85 62 134 78 121 53 128 251 5 143 4 172 -8 172 -7 0
-242 -45 -522 -100 -280 -56 -750 -148 -1044 -206 l-535 -106 -86 -50 -85 -50
-77 -154 c-42 -85 -77 -167 -77 -182 1 -24 36 -53 287 -242 396 -298 463 -379
463 -557 0 -83 -12 -102 -66 -110 -87 -11 -110 27 -122 203 -13 186 -49 248
-174 304 -75 33 -143 42 -184 25 -19 -8 -34 -17 -34 -21 0 -3 11 -19 25 -36
21 -25 25 -40 25 -97 0 -61 3 -70 28 -93 15 -14 58 -40 95 -58 73 -36 101 -69
87 -106 -10 -26 -60 -69 -112 -95 -34 -17 -46 -33 -83 -112 -56 -116 -95 -252
-95 -329 0 -89 28 -205 67 -280 27 -51 58 -88 127 -152 86 -79 102 -89 271
-167 99 -46 200 -98 225 -116 163 -117 187 -130 333 -178 125 -42 150 -47 172
-37 14 6 25 15 25 20 0 4 -41 44 -91 87 -50 44 -95 87 -100 96 -16 31 -10 68
14 83 33 21 267 65 642 121 259 38 235 31 235 69 0 23 11 45 36 74 l35 42 -12
80 c-9 65 -14 80 -27 75 -23 -9 -250 -65 -262 -65 -33 0 7 29 91 65 91 40 95
42 123 97 l30 55 -33 79 c-18 44 -36 83 -41 87 -4 5 -63 -19 -130 -53 -67 -34
-126 -58 -131 -53 -5 5 32 40 81 78 85 67 90 73 120 147 l30 78 -53 106 -53
105 -239 -287 c-132 -158 -244 -293 -248 -301 -26 -43 27 17 234 267 128 154
234 279 235 277 2 -1 -4 -32 -12 -68 -13 -56 -24 -75 -87 -149 -213 -252 -481
-567 -493 -579 -11 -12 -16 -12 -28 -1 -23 18 -20 35 15 75 18 20 29 38 27 41
-3 2 -22 -16 -42 -41 -37 -45 -38 -45 -100 -45 -75 0 -108 20 -137 84 -19 41
-24 127 -10 175 7 27 10 29 106 70 75 32 70 24 89 132 6 37 7 37 117 75 79 28
114 45 120 59 4 11 13 60 20 108 10 82 13 89 41 103 16 9 32 13 34 11 3 -2 -8
-10 -24 -16 -28 -12 -30 -17 -42 -109 -15 -113 -21 -127 -55 -136 -14 -4 -63
-20 -109 -37 l-84 -30 -13 -71 -14 -70 -75 -30 c-41 -16 -81 -35 -88 -42 -23
-22 -27 -120 -8 -171 26 -68 65 -95 135 -95 l57 0 105 126 c111 135 569 686
575 693 2 2 29 -49 60 -114 l55 -118 -23 -65 c-13 -36 -38 -84 -57 -107 -29
-34 -31 -41 -16 -44 10 -1 40 7 66 20 27 12 51 20 54 17 3 -3 23 -45 44 -94
l39 -89 -34 -63 c-19 -34 -34 -68 -34 -74 0 -7 16 -8 49 -4 l48 6 12 -69 c16
-99 15 -104 -25 -152 -30 -36 -35 -48 -29 -75 7 -38 33 -30 -230 -69 -392 -59
-623 -101 -652 -121 -37 -24 -29 -56 30 -110 108 -102 164 -144 190 -144 40 0
87 -45 87 -85 0 -60 -3 -60 -385 -79 -269 -13 -305 -20 -305 -57 0 -28 -53
-23 -59 6 -7 41 -51 40 -51 -1 0 -25 -7 -28 -34 -18 -11 4 -16 19 -16 45 0 32
4 41 24 49 27 10 262 28 501 38 160 7 160 7 160 31 0 21 -8 25 -70 41 -94 25
-242 77 -284 101 -19 11 -67 45 -107 75 l-73 55 -247 -17 c-282 -20 -237 -26
-546 73 -115 37 -210 64 -213 62 -2 -3 -9 -59 -16 -124 -6 -66 -15 -124 -19
-128 -8 -9 -112 -38 -118 -32 -2 2 12 18 32 37 34 31 37 40 57 155 l21 122
-89 237 -88 238 -48 29 c-26 17 -45 32 -43 34 2 2 33 1 69 -3 l66 -7 74 -201
c41 -110 80 -218 88 -238 13 -37 13 -38 163 -87 214 -71 230 -74 274 -61 55
18 176 73 184 85 5 6 -32 49 -86 101 -108 104 -146 168 -170 287 -31 150 -12
284 66 459 20 44 28 72 22 78 -7 7 -35 -3 -80 -25 -80 -41 -120 -41 -191 1
-66 38 -57 59 18 42 62 -14 92 -5 146 45 91 84 92 152 2 243 -70 71 -115 88
-216 81 -43 -3 -93 -9 -111 -13 l-33 -6 16 38 c43 103 98 130 248 122 75 -5
86 -3 137 24 65 33 74 34 174 8 51 -13 92 -31 119 -52 56 -44 62 -52 92 -128
21 -54 25 -82 25 -165 0 -134 17 -169 83 -173 39 -3 48 1 61 20 23 37 14 144
-20 209 -28 56 -127 178 -173 213 -14 11 -28 23 -31 27 -3 3 -86 67 -185 142
-352 268 -325 244 -325 282 0 23 26 86 76 188 l77 153 86 51 c85 50 90 52 316
97 127 25 574 113 995 196 421 83 792 157 825 164 33 8 66 15 73 15 9 1 12
-24 11 -96z m-31 -192 l-3 -64 -100 -64 c-55 -35 -108 -68 -117 -74 -17 -9
-18 1 -18 161 l0 171 113 54 112 54 8 -87 c4 -48 6 -116 5 -151z m-158 183
l-95 -45 -410 -60 c-225 -33 -488 -71 -583 -85 -95 -14 -178 -24 -184 -22 -5
2 104 25 243 51 319 60 923 174 1009 192 115 23 119 17 20 -31z m-575 -450
c-11 -8 -57 -35 -103 -60 -46 -25 -81 -48 -78 -51 3 -3 57 24 121 61 l116 66
282 -2 282 -3 -115 -81 -115 -80 -285 13 c-291 14 -361 16 -368 8 -3 -2 3 -16
13 -31 l17 -27 -33 5 c-19 3 -147 21 -284 39 l-250 34 214 3 c152 2 219 6 229
15 8 6 51 33 96 59 l81 46 100 1 c91 0 98 -1 80 -15z m625 -139 l0 -135 -112
-75 -113 -75 -3 122 c-1 67 -1 127 2 134 4 9 213 164 223 164 2 0 3 -61 3
-135z m-942 -270 c2 7 36 22 77 35 68 21 79 22 132 11 32 -8 62 -16 67 -19 5
-3 -27 -18 -70 -34 -55 -20 -89 -27 -111 -23 l-33 6 0 -81 c0 -44 -3 -80 -6
-80 -9 0 -508 231 -517 239 -4 4 97 -9 225 -29 167 -26 234 -33 236 -25z m524
-31 c105 -25 186 -50 181 -54 -4 -4 -53 -29 -109 -54 l-101 -47 -176 68 c-98
37 -177 70 -177 73 0 8 149 58 174 59 10 1 104 -20 208 -45z m191 -345 c-11
-10 -198 -109 -206 -109 -4 0 -7 63 -7 140 l0 140 108 54 107 54 3 -136 c1
-74 -1 -139 -5 -143z m-1074 119 c152 -49 154 -50 215 -38 51 10 67 10 96 -2
l35 -15 -59 -18 c-48 -15 -62 -16 -78 -6 -19 12 -20 11 -13 -38 4 -28 4 -51 1
-51 -9 0 -379 211 -391 223 -12 11 -9 10 194 -55z m482 -109 c68 -28 130 -53
137 -56 13 -5 18 -137 6 -167 -5 -14 -164 -96 -185 -96 -5 0 -9 42 -9 93 l0
93 90 33 c50 18 89 35 86 38 -2 2 -39 -10 -82 -26 -44 -17 -84 -31 -90 -31 -8
0 -176 109 -192 125 -2 2 93 41 109 44 3 0 61 -22 130 -50z m-629 -124 l104
-65 61 11 c58 10 62 10 124 -22 l64 -32 -70 -18 c-48 -12 -73 -15 -82 -8 -9 8
-13 -1 -15 -39 l-3 -49 -150 143 c-82 79 -146 144 -143 144 4 0 53 -29 110
-65z m2836 -40 c-75 -51 -1538 -985 -1542 -985 -3 0 -8 26 -12 59 -9 80 -13
85 -60 72 -21 -6 -40 -9 -42 -6 -2 2 10 30 28 62 18 32 33 67 34 78 1 16 146
85 806 385 443 202 809 365 813 362 5 -2 -6 -14 -25 -27z m-2360 -123 l93 -48
-84 -27 c-46 -15 -90 -27 -98 -27 -9 0 -49 26 -89 57 l-74 57 65 17 c35 9 71
17 79 18 8 0 57 -21 108 -47z m88 -94 c-19 -115 -27 -153 -34 -158 -7 -7 -163
-50 -179 -50 -10 0 23 170 35 182 6 6 157 55 175 57 4 1 6 -14 3 -31z m474
-38 c33 -66 34 -77 17 -170 l-13 -65 -37 79 c-34 72 -36 81 -27 125 18 81 20
91 25 91 3 0 18 -27 35 -60z m-876 -105 l40 -24 -70 -33 c-51 -25 -68 -38 -66
-51 5 -26 -7 -21 -88 40 l-75 55 56 -6 c31 -3 59 -2 63 2 7 7 86 41 96 41 3 0
23 -11 44 -24z m943 -271 l-14 -49 -137 -74 c-75 -40 -139 -71 -142 -68 -3 3
-8 23 -11 45 l-5 41 158 79 c88 44 160 79 162 77 2 -2 -3 -25 -11 -51z m-317
-138 c0 -20 -34 -51 -186 -166 -134 -102 -189 -138 -194 -129 -6 9 50 59 183
166 106 84 193 153 195 153 1 0 2 -11 2 -24z m10 -85 l0 -50 -176 -105 c-96
-58 -179 -106 -184 -106 -4 0 -10 6 -13 14 -4 10 55 61 180 155 102 78 187
141 189 141 2 0 4 -22 4 -49z m-3174 19 c6 -6 26 -18 45 -28 19 -10 78 -42
132 -71 l98 -53 27 27 27 28 114 -6 c63 -4 116 -9 119 -12 3 -3 -2 -21 -11
-40 -24 -51 -22 -55 27 -55 35 0 47 -5 58 -22 19 -31 12 -63 -18 -78 -34 -19
-30 -34 15 -55 22 -10 42 -24 46 -33 3 -8 -4 -44 -16 -79 l-21 -65 27 -28 c25
-26 27 -33 21 -74 -9 -55 -27 -76 -67 -76 -33 0 -39 -16 -9 -25 11 -3 20 -10
20 -14 0 -22 104 -93 155 -107 99 -25 125 -21 168 32 20 26 37 51 37 55 0 5
11 9 25 9 22 0 52 -19 153 -96 33 -25 41 -51 21 -71 -17 -17 13 -23 47 -8 l30
12 -7 64 c-4 35 -11 74 -14 86 -5 16 0 29 16 46 86 88 82 80 80 162 -2 87 4
91 79 51 46 -24 57 -44 59 -101 1 -16 19 -58 41 -93 22 -34 40 -67 40 -71 0
-5 61 19 136 52 117 53 133 63 118 74 -9 7 -37 15 -63 19 -41 6 -216 92 -207
101 2 3 62 -14 133 -35 142 -44 169 -45 423 -22 195 18 200 18 286 -46 42 -31
103 -69 137 -84 68 -30 278 -100 302 -100 8 0 15 -4 15 -9 0 -10 -80 -17 -295
-26 -193 -9 -354 -24 -376 -35 -44 -24 -34 -113 12 -118 24 -3 27 -8 31 -58 8
-100 48 -97 48 4 0 51 0 52 30 52 29 0 30 -2 30 -42 1 -24 7 -56 14 -73 l13
-30 12 24 c9 16 12 50 9 102 l-5 77 126 7 c306 15 475 27 497 35 73 28 33 160
-48 160 -23 0 -53 20 -133 91 -57 50 -106 97 -109 104 -9 25 20 43 94 59 99
22 424 76 428 72 1 -2 -84 -59 -189 -127 -106 -68 -188 -124 -183 -126 5 -1
157 -23 339 -48 181 -25 332 -48 334 -51 3 -2 0 -8 -5 -13 -10 -9 -5138 -2401
-5148 -2401 -20 0 2 21 54 50 67 38 72 52 44 118 -15 36 -20 56 -44 191 -15
89 -32 118 -72 124 -37 5 -51 -8 -43 -38 9 -30 26 -196 33 -323 5 -86 4 -116
-5 -124 -20 -16 -15 -36 9 -40 19 -2 24 -11 30 -52 16 -112 13 -204 -7 -185
-8 9 -65 240 -65 265 0 13 -4 32 -9 42 -10 20 -41 122 -71 237 -12 44 -31 110
-43 146 l-20 67 46 81 c25 45 49 90 52 101 11 33 -93 205 -170 281 l-66 66 4
189 c2 104 9 212 15 239 21 105 83 210 188 323 41 44 62 56 129 80 77 26 80
29 79 57 -1 17 -14 57 -29 90 -15 33 -33 74 -41 90 -7 17 -29 78 -49 137 -29
88 -35 121 -35 190 l0 84 -104 93 c-148 132 -282 281 -273 304 2 7 36 21 73
31 38 10 74 22 79 26 6 4 19 10 30 13 11 3 67 19 125 37 58 17 128 37 155 45
80 24 310 74 440 96 179 31 185 32 185 22 0 -5 18 -29 40 -53 22 -25 40 -48
40 -51 0 -4 39 -12 88 -19 48 -6 121 -21 162 -32 41 -11 121 -31 177 -45 103
-26 125 -39 230 -134 l22 -20 -4 76 c-1 42 -5 77 -6 79 -14 10 -118 67 -189
104 -47 24 -95 53 -107 65 -13 11 -23 16 -23 10 0 -5 -23 -20 -50 -33 -41 -19
-53 -21 -63 -11 -29 30 94 91 184 91 59 0 193 -44 302 -99 436 -222 399 -206
414 -186 7 11 13 24 13 31 0 14 -52 48 -90 59 -55 16 -194 91 -208 114 -15 21
-14 26 1 53 9 16 17 36 17 44 0 16 41 19 56 4z m3617 -128 c8 -49 7 -57 -20
-95 l-28 -42 -3 33 c-2 18 6 58 18 89 11 30 19 57 17 60 -3 2 -14 -23 -26 -55
l-23 -60 -131 -20 c-72 -12 -135 -19 -139 -16 -4 3 -8 25 -8 49 l0 43 143 35
c187 46 190 46 200 -21z m-355 -44 c-2 -17 -36 -34 -193 -98 -303 -122 -277
-113 -273 -95 2 10 89 54 228 115 124 54 229 99 233 99 5 1 7 -9 5 -21z
m-2210 -104 c106 -53 112 -63 112 -199 0 -91 3 -114 15 -119 8 -3 15 -13 14
-23 -1 -26 -53 -108 -70 -110 -10 -2 -173 110 -208 143 -2 2 -1 10 2 18 5 13
10 13 34 2 15 -8 46 -17 67 -21 l39 -6 -7 47 c-3 26 -7 48 -9 50 -1 1 -54 29
-117 62 -63 33 -116 68 -118 76 -2 10 2 14 10 11 7 -2 54 -16 103 -30 l90 -26
18 22 c9 12 17 25 17 29 0 9 -42 46 -124 108 -69 53 -64 74 7 32 29 -17 85
-47 125 -66z m2221 -28 c-8 -8 -473 -117 -485 -114 -31 7 13 29 236 119 l235
96 9 -49 c5 -27 7 -50 5 -52z m-262 -839 c68 -52 266 -223 298 -258 l30 -31
-40 5 c-55 7 -184 53 -217 77 -15 11 -31 20 -35 20 -4 0 -30 18 -58 40 -27 22
-54 40 -58 40 -5 0 -32 17 -61 38 l-53 37 66 32 c36 17 71 32 76 32 6 0 29
-14 52 -32z m-427 -281 c254 -170 260 -175 377 -338 59 -82 120 -169 136 -191
34 -51 156 -176 255 -260 68 -58 88 -87 60 -87 -7 0 -47 9 -88 19 -41 11 -97
21 -125 22 l-50 4 -3 -52 c-2 -40 -7 -53 -19 -53 -38 0 -206 159 -320 302 -29
36 -67 72 -85 81 -85 39 -128 57 -137 57 -5 0 -22 6 -38 14 -30 16 -73 35
-140 61 -24 10 -43 23 -43 31 0 17 -6 18 87 -5 71 -18 157 -33 256 -45 34 -4
38 -3 32 12 -4 9 -14 36 -22 59 -11 31 -33 59 -81 100 -37 31 -89 78 -117 104
-48 44 -126 94 -207 132 -21 10 -38 20 -38 23 0 11 183 93 194 87 6 -3 58 -38
116 -77z m483 0 c18 -14 35 -25 40 -25 4 0 69 -31 145 -69 150 -76 256 -122
282 -122 9 0 42 -28 72 -62 51 -58 212 -249 230 -273 4 -5 22 -28 40 -50 46
-56 39 -46 143 -194 52 -73 106 -154 121 -180 15 -25 32 -53 39 -61 7 -8 24
-35 37 -60 14 -25 41 -72 60 -105 56 -97 109 -194 108 -200 0 -3 18 -39 40
-80 22 -41 40 -81 40 -90 0 -8 5 -15 10 -15 6 0 10 -7 10 -15 0 -8 14 -43 30
-77 17 -34 30 -67 30 -75 0 -7 4 -13 9 -13 5 0 11 -10 14 -22 7 -35 38 -118
64 -172 34 -74 33 -76 -47 -76 -46 0 -86 -7 -122 -21 -44 -17 -59 -19 -94 -10
-24 6 -57 11 -73 11 -42 0 -67 28 -75 85 -11 70 -12 72 -85 110 -36 20 -74 41
-83 49 -9 7 -42 90 -74 187 -68 209 -79 252 -71 273 4 10 36 31 73 48 65 30
66 31 101 14 76 -36 64 30 -16 96 -49 39 -63 59 -91 125 -18 43 -43 101 -55
128 -12 28 -37 88 -56 135 -58 145 -140 293 -179 320 -15 11 -31 20 -35 20 -3
0 -36 20 -73 43 -85 56 -220 137 -226 137 -3 0 -43 24 -89 54 -58 37 -89 65
-100 88 -16 33 -33 52 -101 117 -54 51 -49 69 7 27z"/>
<path d="M6030 6595 c-14 -8 -61 -29 -105 -46 -44 -18 -81 -33 -83 -34 -2 -2
0 -14 4 -29 5 -21 16 -29 60 -42 48 -14 74 -14 260 0 113 8 207 16 209 18 4 3
-306 148 -315 148 -3 -1 -16 -7 -30 -15z"/>
<path d="M5375 5849 c-325 -12 -493 -15 -501 -8 -16 13 -27 -5 -19 -31 8 -24
-24 -24 470 -5 506 19 559 19 551 0 -5 -15 46 10 109 52 24 16 42 16 -610 -8z"/>
<path d="M5328 5681 c-96 -31 -238 -133 -238 -171 0 -21 8 -28 76 -68 l52 -30
188 109 c104 60 190 112 192 117 3 11 -148 62 -183 61 -17 0 -56 -8 -87 -18z"/>
<path d="M5022 4728 c-17 -22 -62 -106 -62 -117 0 -7 31 -11 83 -11 45 0 88
-4 95 -8 7 -5 16 -32 21 -62 5 -33 15 -56 26 -63 29 -16 55 -46 55 -64 0 -9
-34 -49 -75 -89 -61 -58 -78 -81 -89 -120 -17 -59 -29 -124 -22 -124 2 0 66
63 142 140 75 77 144 140 151 140 19 0 80 -138 99 -224 30 -128 35 -146 42
-146 4 0 16 14 26 31 37 62 50 69 131 69 41 0 75 3 75 8 0 11 -49 83 -79 115
-14 16 -47 40 -72 53 -42 21 -119 96 -119 115 0 4 -17 36 -38 70 -21 35 -44
76 -51 91 -20 39 -47 62 -121 101 -36 19 -95 50 -133 71 -77 41 -71 40 -85 24z"/>
<path d="M9708 9009 c-56 -42 -66 -54 -58 -68 20 -39 101 -119 124 -123 38 -8
81 16 96 52 12 30 11 37 -10 76 -12 24 -37 59 -54 79 l-31 35 -67 -51z"/>
<path d="M10696 6769 c-32 -5 -61 -11 -64 -14 -11 -11 26 -197 44 -216 22 -25
85 -26 106 -1 25 29 27 45 14 143 -13 105 -8 102 -100 88z"/>
<path d="M955 5818 c-82 -29 -120 -88 -113 -173 8 -98 78 -154 191 -155 83 0
143 18 182 54 84 79 64 220 -38 266 -47 22 -170 26 -222 8z"/>
<path d="M1718 3596 c-55 -20 -128 -76 -150 -116 -29 -53 -21 -146 16 -195 41
-54 82 -75 144 -75 61 0 121 25 179 75 52 44 67 81 61 150 -11 129 -128 205
-250 161z"/>
<path d="M9758 3568 c-9 -7 -41 -53 -72 -103 l-55 -89 62 -38 c34 -20 65 -37
69 -38 11 0 108 166 114 197 12 61 -68 109 -118 71z"/>
<path d="M2185 3000 c-33 -28 -60 -54 -60 -59 0 -20 100 -124 132 -138 28 -11
39 -11 61 -1 35 17 57 57 48 91 -6 27 -95 148 -111 154 -6 1 -37 -20 -70 -47z"/>
<path d="M3089 2153 c-49 -75 -56 -62 67 -139 44 -28 82 -44 102 -44 56 0 89
60 62 111 -6 10 -51 46 -99 79 l-89 59 -43 -66z"/>
<path d="M3700 1690 l-85 -79 79 -36 c62 -28 81 -33 87 -23 5 7 9 49 9 93 0
44 3 90 6 103 4 12 2 22 -2 22 -5 -1 -47 -36 -94 -80z"/>
<path d="M5037 1408 c-68 -40 -112 -174 -88 -265 23 -86 90 -136 182 -137 110
-2 178 78 186 218 6 90 -21 149 -82 183 -55 31 -145 31 -198 1z"/>
</g>
</svg>
